<svg width="126" height="40" viewBox="0 0 126 40" fill="none" xmlns="http://www.w3.org/2000/svg">
<g id="Group 5">
<g id="Group 333">
<path id="Vector" d="M11.6497 18.8583L16.3238 19.639C15.7256 21.3525 14.7725 22.6605 13.4747 23.5628C12.1769 24.4551 10.5547 24.9113 8.60801 24.9113C5.52575 24.9113 3.23434 23.9075 1.75405 21.8899C0.588062 20.2778 0 18.2398 0 15.7761C0 12.8358 0.770565 10.5342 2.30155 8.8714C3.83254 7.2086 5.77923 6.3772 8.13148 6.3772C10.7676 6.3772 12.8563 7.24915 14.3771 8.99306C15.9081 10.737 16.6381 13.4035 16.5671 17.0029H4.80588C4.8363 18.3919 5.22159 19.4768 5.94146 20.2575C6.66132 21.0281 7.56369 21.4235 8.64857 21.4235C9.38871 21.4235 10.0072 21.2207 10.504 20.8253C11.0008 20.4197 11.3861 19.781 11.6396 18.8887L11.6497 18.8583ZM11.9133 14.1133C11.8829 12.7546 11.528 11.7205 10.8589 11.0107C10.1897 10.301 9.37858 9.94613 8.41537 9.94613C7.39133 9.94613 6.53966 10.3213 5.88062 11.0614C5.21145 11.8117 4.887 12.8256 4.89714 14.1031H11.9133V14.1133Z" fill="#002018"/>
<path id="Vector_2" d="M16.2639 24.5062L24.6387 11.7209L17.0548 0.0103149H22.834L27.7514 7.8782L32.5675 0.0103149H38.296L30.6715 11.9034L39.0463 24.5062H33.0846L27.65 16.03L22.2054 24.5062H16.274H16.2639Z" fill="#002018"/>
<path id="Vector_3" d="M50.0564 18.8583L54.7305 19.639C54.1323 21.3525 53.1793 22.6605 51.8815 23.5628C50.5837 24.4551 48.9614 24.9113 47.0147 24.9113C43.9325 24.9113 41.6411 23.9075 40.1608 21.8899C38.9948 20.2778 38.4067 18.2398 38.4067 15.7761C38.4067 12.8358 39.1773 10.5342 40.7083 8.8714C42.2494 7.2086 44.186 6.3772 46.5382 6.3772C49.1744 6.3772 51.263 7.24915 52.7838 8.99306C54.3148 10.737 55.0448 13.4035 54.9739 17.0029H43.2126C43.243 18.3919 43.6283 19.4768 44.3482 20.2575C45.0681 21.0281 45.9704 21.4235 47.0553 21.4235C47.7955 21.4235 48.4139 21.2207 48.9107 20.8253C49.4076 20.4197 49.7928 19.781 50.0463 18.8887L50.0564 18.8583ZM50.3201 14.1133C50.2896 12.7546 49.9348 11.7205 49.2656 11.0107C48.5964 10.301 47.7853 9.94613 46.8221 9.94613C45.7981 9.94613 44.9464 10.3213 44.2874 11.0614C43.6182 11.8117 43.2937 12.8256 43.3039 14.1031H50.3201V14.1133Z" fill="#002018"/>
<path id="Vector_4" d="M73.8836 24.506H69.1893V15.4519C69.1893 13.5356 69.0879 12.2986 68.8851 11.7308C68.6823 11.1732 68.3579 10.7271 67.9118 10.4229C67.4555 10.1086 66.9181 9.95651 66.2794 9.95651C65.4683 9.95651 64.7383 10.1796 64.0894 10.6257C63.4405 11.0718 63.0045 11.6599 62.7611 12.4C62.5178 13.1402 62.4063 14.4988 62.4063 16.4759V24.5161H57.7119V6.77286H62.0717V9.3786C63.623 7.37107 65.5696 6.36731 67.9219 6.36731C68.9561 6.36731 69.9092 6.54981 70.7608 6.92496C71.6226 7.3001 72.2715 7.77664 72.7075 8.35456C73.1435 8.93249 73.4578 9.59151 73.6302 10.3215C73.8025 11.0617 73.8836 12.106 73.8836 13.4849V24.5161V24.506Z" fill="#002018"/>
<path id="Vector_5" d="M85.7254 6.7629V10.5042H82.5215V17.6522C82.5215 19.1021 82.5519 19.9436 82.6127 20.1869C82.6736 20.4303 82.8155 20.6229 83.0284 20.7851C83.2413 20.9372 83.505 21.0183 83.8193 21.0183C84.2552 21.0183 84.8839 20.8662 85.7051 20.5722L86.1107 24.2121C85.0157 24.6785 83.7787 24.9117 82.3998 24.9117C81.5481 24.9117 80.7877 24.7698 80.1084 24.4859C79.4291 24.202 78.9323 23.837 78.6179 23.3807C78.3036 22.9245 78.0806 22.3161 77.9589 21.5456C77.8575 20.9981 77.8068 19.8929 77.8068 18.2403V10.5042H75.6472V6.7629H77.8068V3.23454L82.5215 0.497009V6.7629H85.7254Z" fill="#002018"/>
<path id="Vector_6" d="M92.8023 24.506H88.1079V6.76273H92.4677V9.28735C93.218 8.09095 93.8871 7.31024 94.4853 6.93509C95.0835 6.55995 95.7527 6.36731 96.5131 6.36731C97.5777 6.36731 98.6119 6.66134 99.6055 7.2494L98.1557 11.3456C97.3648 10.8386 96.6247 10.575 95.9454 10.575C95.2661 10.575 94.7287 10.7575 94.2724 11.1225C93.8162 11.4875 93.4613 12.1364 93.1977 13.0895C92.9341 14.0324 92.8023 16.0196 92.8023 19.0411V24.5263V24.506Z" fill="#002018"/>
<path id="Vector_7" d="M100.903 4.34964V0H105.597V4.34964H100.903ZM100.903 24.506V6.76273H105.597V24.506H100.903Z" fill="#002018"/>
<path id="Vector_8" d="M124.862 12.0045L120.228 12.836C120.076 11.9133 119.722 11.2137 119.164 10.7473C118.616 10.2809 117.897 10.0477 117.014 10.0477C115.848 10.0477 114.916 10.4533 114.216 11.2543C113.516 12.0654 113.172 13.4139 113.172 15.3099C113.172 17.4188 113.527 18.8991 114.236 19.771C114.946 20.643 115.889 21.0789 117.085 21.0789C117.978 21.0789 118.708 20.8255 119.275 20.3185C119.843 19.8116 120.249 18.9396 120.482 17.7027L125.095 18.4834C124.619 20.6024 123.696 22.1942 122.337 23.2791C120.979 24.364 119.154 24.9014 116.872 24.9014C114.277 24.9014 112.209 24.0801 110.667 22.4477C109.126 20.8052 108.356 18.5442 108.356 15.6444C108.356 12.7447 109.126 10.433 110.678 8.80062C112.229 7.16824 114.317 6.34698 116.964 6.34698C119.123 6.34698 120.847 6.81338 122.114 7.74617C123.392 8.67896 124.304 10.0984 124.862 11.9944V12.0045Z" fill="#002018"/>
</g>
<g id="Group 4">
<path id="Vector_9" d="M2.28168 37.7289V31.3444H0V30.0465H6.10191V31.3444H3.8307V37.7289H2.28168Z" fill="#002018"/>
<path id="Vector_10" d="M9.31464 35.9599L10.7799 36.2006C10.5915 36.7344 10.2985 37.1531 9.8903 37.4252C9.48211 37.7078 8.96925 37.8439 8.3622 37.8439C7.39929 37.8439 6.67711 37.5299 6.21658 36.8914C5.85026 36.389 5.66187 35.7506 5.66187 34.9761C5.66187 34.055 5.9026 33.3328 6.38405 32.8095C6.8655 32.2862 7.47256 32.0245 8.21567 32.0245C9.04252 32.0245 9.7019 32.2967 10.1729 32.8409C10.6543 33.3852 10.8846 34.2225 10.8637 35.3529H7.1795C7.1795 35.7925 7.30509 36.1274 7.53535 36.3681C7.76561 36.6088 8.04821 36.7344 8.38313 36.7344C8.61339 36.7344 8.81226 36.6716 8.96925 36.546C9.12625 36.4204 9.24138 36.2216 9.32511 35.939L9.31464 35.9599ZM9.39837 34.4737C9.39837 34.0446 9.27278 33.7201 9.06345 33.5003C8.85412 33.2805 8.60293 33.1654 8.29941 33.1654C7.97495 33.1654 7.71328 33.2805 7.50396 33.5212C7.29463 33.7515 7.18996 34.076 7.18996 34.4737H9.38791H9.39837Z" fill="#002018"/>
<path id="Vector_11" d="M16.7561 33.8139L15.3012 34.0756C15.2489 33.7825 15.1442 33.5627 14.9663 33.4162C14.7988 33.2697 14.5686 33.1964 14.2965 33.1964C13.9301 33.1964 13.6371 33.322 13.4173 33.5732C13.1975 33.8244 13.0928 34.2535 13.0928 34.8396C13.0928 35.499 13.208 35.97 13.4277 36.2421C13.6475 36.5143 13.9511 36.6503 14.3174 36.6503C14.6 36.6503 14.8302 36.5666 15.0082 36.4096C15.1861 36.2526 15.3117 35.9805 15.385 35.5932L16.8293 35.8444C16.6828 36.5038 16.3897 37.0062 15.9606 37.3516C15.5315 37.6865 14.9663 37.8644 14.2441 37.8644C13.4278 37.8644 12.7788 37.6028 12.2974 37.0899C11.8159 36.5771 11.5752 35.8653 11.5752 34.9548C11.5752 34.0442 11.8159 33.322 12.3078 32.8091C12.7893 32.2963 13.4487 32.0451 14.2755 32.0451C14.9558 32.0451 15.4896 32.1916 15.8874 32.4847C16.2851 32.7778 16.5781 33.2173 16.7456 33.8139H16.7561Z" fill="#002018"/>
<path id="Vector_12" d="M19.164 30.0459V32.8718C19.635 32.3171 20.2106 32.0345 20.87 32.0345C21.2049 32.0345 21.5189 32.0973 21.7911 32.2229C22.0632 32.3485 22.2725 32.5055 22.4086 32.7043C22.5447 32.9032 22.6389 33.1125 22.6912 33.3532C22.7435 33.594 22.7645 33.9603 22.7645 34.4627V37.7282H21.2887V34.7871C21.2887 34.201 21.2573 33.8347 21.2049 33.6777C21.1526 33.5207 21.048 33.3951 20.9119 33.3009C20.7758 33.2067 20.5979 33.1649 20.3781 33.1649C20.1374 33.1649 19.9176 33.2277 19.7187 33.3428C19.5303 33.4579 19.3838 33.6358 19.3001 33.8766C19.2163 34.1173 19.164 34.4731 19.164 34.9337V37.7177H17.6882V30.0354H19.164V30.0459Z" fill="#002018"/>
<path id="Vector_13" d="M29.1177 37.7283H27.6419V34.892C27.6419 34.2954 27.6105 33.8977 27.5477 33.7302C27.4849 33.5523 27.3802 33.4162 27.2442 33.322C27.1081 33.2278 26.9302 33.1755 26.7313 33.1755C26.4801 33.1755 26.2499 33.2487 26.0405 33.3848C25.8417 33.5209 25.6952 33.7093 25.6219 33.9395C25.5486 34.1698 25.5068 34.5989 25.5068 35.2164V37.7388H24.031V32.1707H25.4021V32.9871C25.8836 32.3591 26.5011 32.0451 27.2337 32.0451C27.5582 32.0451 27.8512 32.1079 28.1234 32.223C28.3955 32.3382 28.5943 32.4847 28.7304 32.6731C28.8665 32.851 28.9607 33.0603 29.0235 33.2906C29.0758 33.5209 29.1072 33.8558 29.1072 34.2849V37.7388L29.1177 37.7283Z" fill="#002018"/>
<path id="Vector_14" d="M30.0813 34.8715C30.0813 34.3796 30.2069 33.9086 30.4476 33.4481C30.6883 32.9875 31.0337 32.6421 31.4733 32.4014C31.9129 32.1607 32.4048 32.0351 32.9491 32.0351C33.7864 32.0351 34.4772 32.3072 35.0214 32.8515C35.5552 33.3957 35.8273 34.0865 35.8273 34.9238C35.8273 35.7611 35.5552 36.4624 35.011 37.0171C34.4667 37.5718 33.7864 37.8439 32.9596 37.8439C32.4467 37.8439 31.9652 37.7288 31.5047 37.4986C31.0442 37.2683 30.6883 36.9334 30.4476 36.4833C30.2069 36.0333 30.0813 35.4995 30.0813 34.861V34.8715ZM31.5885 34.9552C31.5885 35.5099 31.7141 35.9286 31.9757 36.2217C32.2374 36.5147 32.5618 36.6612 32.9491 36.6612C33.3363 36.6612 33.6503 36.5147 33.912 36.2217C34.1736 35.9286 34.2992 35.4995 34.2992 34.9448C34.2992 34.39 34.1736 33.9818 33.912 33.6888C33.6503 33.3957 33.3259 33.2492 32.9491 33.2492C32.5723 33.2492 32.2374 33.3957 31.9757 33.6888C31.7141 33.9818 31.5885 34.4005 31.5885 34.9552Z" fill="#002018"/>
<path id="Vector_15" d="M36.7998 37.7288V30.0464H38.2756V37.7288H36.7998Z" fill="#002018"/>
<path id="Vector_16" d="M39.2693 34.8715C39.2693 34.3796 39.3949 33.9086 39.6356 33.4481C39.8763 32.9875 40.2217 32.6421 40.6613 32.4014C41.1009 32.1607 41.5928 32.0351 42.1371 32.0351C42.9744 32.0351 43.6652 32.3072 44.2094 32.8515C44.7432 33.3957 45.0153 34.0865 45.0153 34.9238C45.0153 35.7611 44.7432 36.4624 44.199 37.0171C43.6547 37.5718 42.9744 37.8439 42.1475 37.8439C41.6347 37.8439 41.1532 37.7288 40.6927 37.4986C40.2322 37.2683 39.8763 36.9334 39.6356 36.4833C39.3949 36.0333 39.2693 35.4995 39.2693 34.861V34.8715ZM40.7764 34.9552C40.7764 35.5099 40.902 35.9286 41.1742 36.2217C41.4358 36.5147 41.7603 36.6612 42.1475 36.6612C42.5348 36.6612 42.8488 36.5147 43.1104 36.2217C43.3721 35.9286 43.4977 35.4995 43.4977 34.9448C43.4977 34.39 43.3721 33.9818 43.1104 33.6888C42.8488 33.3957 42.5243 33.2492 42.1475 33.2492C41.7708 33.2492 41.4358 33.3957 41.1742 33.6888C40.9125 33.9818 40.7764 34.4005 40.7764 34.9552Z" fill="#002018"/>
<path id="Vector_17" d="M45.8852 38.0951L47.5703 38.3044C47.6017 38.5032 47.6645 38.6288 47.7692 38.7126C47.9052 38.8172 48.125 38.8696 48.4285 38.8696C48.8158 38.8696 49.0984 38.8068 49.2973 38.6917C49.4228 38.6184 49.5275 38.4928 49.5903 38.3149C49.6322 38.1893 49.6636 37.9695 49.6636 37.6345V36.8182C49.224 37.4147 48.6693 37.7183 47.9994 37.7183C47.2563 37.7183 46.6597 37.4043 46.2201 36.7658C45.8747 36.2634 45.7073 35.6459 45.7073 34.9028C45.7073 33.9713 45.9271 33.2596 46.3771 32.7677C46.8272 32.2757 47.3819 32.0245 48.0517 32.0245C48.7216 32.0245 49.3077 32.3281 49.7578 32.9351V32.1501H51.1393V37.1426C51.1393 37.802 51.087 38.2939 50.9823 38.6184C50.8777 38.9428 50.7207 39.194 50.5218 39.3824C50.323 39.5708 50.0613 39.7173 49.7368 39.822C49.4124 39.9267 48.9937 39.979 48.5018 39.979C47.5598 39.979 46.89 39.822 46.4923 39.4976C46.0945 39.1731 45.8957 38.7649 45.8957 38.273C45.8957 38.2207 45.8957 38.1683 45.8957 38.0951H45.8852ZM47.204 34.8295C47.204 35.4157 47.3191 35.8552 47.5494 36.1274C47.7796 36.3995 48.0622 36.5356 48.3971 36.5356C48.753 36.5356 49.0565 36.3995 49.3077 36.1169C49.5589 35.8343 49.6845 35.4157 49.6845 34.8714C49.6845 34.3271 49.5694 33.8666 49.3286 33.584C49.0879 33.3014 48.7949 33.1654 48.4285 33.1654C48.0622 33.1654 47.7901 33.3015 47.5598 33.5736C47.3296 33.8457 47.2144 34.2644 47.2144 34.8295H47.204Z" fill="#002018"/>
<path id="Vector_18" d="M51.7351 32.1711H53.3051L54.6343 36.117L55.9321 32.1711H57.4602L55.4925 37.5299L55.1472 38.5033C55.0216 38.8278 54.896 39.079 54.7808 39.2464C54.6657 39.4139 54.5296 39.5604 54.3831 39.6651C54.2261 39.7697 54.0482 39.8535 53.8179 39.9163C53.5981 39.9791 53.3469 40 53.0643 40C52.7817 40 52.4991 39.9686 52.227 39.9163L52.091 38.765C52.3212 38.8068 52.5305 38.8382 52.7189 38.8382C53.0643 38.8382 53.3155 38.7336 53.483 38.5347C53.6505 38.3358 53.7761 38.0742 53.8598 37.7707L51.7456 32.1921L51.7351 32.1711Z" fill="#002018"/>
<path id="Vector_19" d="M65.7397 33.8139L64.2849 34.0756C64.2325 33.7825 64.1279 33.5627 63.9499 33.4162C63.772 33.2697 63.5522 33.1964 63.2801 33.1964C62.9138 33.1964 62.6207 33.322 62.4009 33.5732C62.1811 33.8244 62.0765 34.2535 62.0765 34.8396C62.0765 35.499 62.1916 35.97 62.4114 36.2421C62.6312 36.5143 62.9347 36.6503 63.301 36.6503C63.5836 36.6503 63.8139 36.5666 63.9918 36.4096C64.1697 36.2526 64.2953 35.9805 64.3686 35.5932L65.813 35.8444C65.6665 36.5038 65.3734 37.0062 64.9443 37.3516C64.5151 37.697 63.95 37.8644 63.2278 37.8644C62.4114 37.8644 61.7625 37.6028 61.281 37.0899C60.7996 36.5771 60.5588 35.8653 60.5588 34.9548C60.5588 34.0442 60.7996 33.322 61.2915 32.8091C61.7729 32.2963 62.4323 32.0451 63.2592 32.0451C63.9395 32.0451 64.4733 32.1916 64.871 32.4847C65.2687 32.7778 65.5618 33.2173 65.7292 33.8139H65.7397Z" fill="#002018"/>
<path id="Vector_20" d="M66.3574 34.8715C66.3574 34.3796 66.483 33.9086 66.7238 33.4481C66.9645 32.9875 67.3099 32.6421 67.7495 32.4014C68.189 32.1607 68.681 32.0351 69.2252 32.0351C70.0625 32.0351 70.7533 32.3072 71.2976 32.8515C71.8313 33.3957 72.1035 34.0865 72.1035 34.9238C72.1035 35.7611 71.8313 36.4624 71.2871 37.0171C70.7428 37.5718 70.0625 37.8439 69.2357 37.8439C68.7228 37.8439 68.2414 37.7288 67.7809 37.4986C67.3203 37.2683 66.9645 36.9334 66.7238 36.4833C66.483 36.0333 66.3574 35.4995 66.3574 34.861V34.8715ZM67.8646 34.9552C67.8646 35.5099 67.9902 35.9286 68.2518 36.2217C68.5135 36.5147 68.838 36.6612 69.2252 36.6612C69.6125 36.6612 69.9265 36.5147 70.1881 36.2217C70.4498 35.9286 70.5754 35.4995 70.5754 34.9448C70.5754 34.39 70.4498 33.9818 70.1881 33.6888C69.9265 33.3957 69.602 33.2492 69.2252 33.2492C68.8484 33.2492 68.5135 33.3957 68.2518 33.6888C67.9902 33.9818 67.8646 34.4005 67.8646 34.9552Z" fill="#002018"/>
<path id="Vector_21" d="M74.5109 37.7288H73.0352V32.1607H74.4063V32.9561C74.6365 32.5793 74.8458 32.3386 75.0342 32.213C75.2226 32.0979 75.432 32.0351 75.6727 32.0351C76.0076 32.0351 76.3321 32.1293 76.6461 32.3177L76.1855 33.6051C75.9343 33.4481 75.7041 33.3643 75.4948 33.3643C75.2854 33.3643 75.118 33.4167 74.9714 33.5318C74.8249 33.6469 74.7098 33.8458 74.6365 34.1493C74.5632 34.4528 74.5109 35.0703 74.5109 36.0123V37.7288Z" fill="#002018"/>
<path id="Vector_22" d="M77.1682 32.1707H78.5393V32.9871C78.7172 32.7045 78.958 32.4847 79.2615 32.3068C79.565 32.1288 79.8999 32.0451 80.2767 32.0451C80.9257 32.0451 81.4699 32.2963 81.92 32.8091C82.37 33.3115 82.6003 34.0233 82.6003 34.9234C82.6003 35.8235 82.37 36.5771 81.92 37.0899C81.4699 37.6028 80.9152 37.8644 80.2663 37.8644C79.9627 37.8644 79.6802 37.8016 79.429 37.676C79.1778 37.5504 78.9161 37.3411 78.644 37.048V39.8531H77.1682V32.1707ZM78.623 34.8606C78.623 35.4886 78.7486 35.9491 78.9998 36.2421C79.251 36.5457 79.5545 36.6922 79.9104 36.6922C80.2663 36.6922 80.5384 36.5561 80.7687 36.284C80.9989 36.0119 81.114 35.5618 81.114 34.9338C81.114 34.3477 80.9989 33.9186 80.7687 33.636C80.5384 33.3534 80.2453 33.2069 79.8999 33.2069C79.5546 33.2069 79.2406 33.3429 78.9998 33.6255C78.7591 33.9081 78.644 34.3163 78.644 34.8606H78.623Z" fill="#002018"/>
<path id="Vector_23" d="M83.5107 37.7283V36.2526H84.9865V37.7283H83.5107Z" fill="#002018"/>
</g>
</g>
</svg>
